<svg xmlns="http://www.w3.org/2000/svg" width="21.17" height="17.171" viewBox="0 0 21.17 17.171">
  <path id="Path_39" data-name="Path 39" d="M44.7,19.171A12.239,12.239,0,0,0,57.053,6.822V6.234A9.56,9.56,0,0,0,59.17,4a9.763,9.763,0,0,1-2.47.706,4.576,4.576,0,0,0,1.882-2.352,10.788,10.788,0,0,1-2.705,1.058A4.2,4.2,0,0,0,52.7,2,4.419,4.419,0,0,0,48.35,6.352a2.293,2.293,0,0,0,.118.941,12.16,12.16,0,0,1-8.938-4.587,4.5,4.5,0,0,0-.588,2.235,4.673,4.673,0,0,0,1.882,3.646,3.965,3.965,0,0,1-2-.588h0a4.3,4.3,0,0,0,3.528,4.234,3.626,3.626,0,0,1-1.176.118,2,2,0,0,1-.823-.118,4.456,4.456,0,0,0,4.116,3.058,8.88,8.88,0,0,1-5.41,1.882A3.256,3.256,0,0,1,38,17.054a11.1,11.1,0,0,0,6.7,2.117" transform="translate(-38.001 -2)" fill="#cecfd0" fill-rule="evenodd"/>
</svg>
