<svg xmlns="http://www.w3.org/2000/svg" width="38" height="38" viewBox="0 0 38 38">
  <g id="Group_270" data-name="Group 270" transform="translate(-1155 -1475)">
    <g id="Icon" transform="translate(0 78)">
      <circle id="Icon.BG" cx="19" cy="19" r="19" transform="translate(1155 1397)" fill="#daf7e8"/>
      <path id="Process" d="M-6851.2-1475.1a6.973,6.973,0,0,1-4.9,2,6.721,6.721,0,0,1-4.9-2,6.583,6.583,0,0,1-1.9-3.8l2-.3a5.405,5.405,0,0,0,1.4,2.7,5.012,5.012,0,0,0,7,0l-2.1-2.1,6.4-.7-.8,6.4Zm-11.9-12,2.2,2.2a7.063,7.063,0,0,1,9.9,0,6.592,6.592,0,0,1,1.9,3.8l-2,.3a5.4,5.4,0,0,0-1.4-2.7,5.012,5.012,0,0,0-7,0l2.1,2.1-6.4.7Z" transform="translate(8029.801 2896.101)" fill="#4ad991"/>
    </g>
  </g>
</svg>
