<svg xmlns="http://www.w3.org/2000/svg" width="38" height="38" viewBox="0 0 38 38">
  <g id="Icon" transform="translate(-235 -994)">
    <g id="Icon.BG" transform="translate(235 994)" fill="#fff">
      <path d="M 19 37.5 C 16.50230026245117 37.5 14.07956981658936 37.01092910766602 11.79911994934082 36.04637908935547 C 9.596209526062012 35.11463165283203 7.617690086364746 33.7806396484375 5.918519973754883 32.08147811889648 C 4.219359874725342 30.38231086730957 2.885370016098022 28.40378952026367 1.953619956970215 26.20088005065918 C 0.9890699982643127 23.92042922973633 0.5 21.49769973754883 0.5 19 C 0.5 16.50230026245117 0.9890699982643127 14.07956981658936 1.953619956970215 11.79911994934082 C 2.885370016098022 9.596209526062012 4.219359874725342 7.617690086364746 5.918519973754883 5.918519973754883 C 7.617690086364746 4.219359874725342 9.596209526062012 2.885370016098022 11.79911994934082 1.953619956970215 C 14.07956981658936 0.9890699982643127 16.50230026245117 0.5 19 0.5 C 21.49769973754883 0.5 23.92042922973633 0.9890699982643127 26.20088005065918 1.953619956970215 C 28.40378952026367 2.885370016098022 30.38231086730957 4.219359874725342 32.08147811889648 5.918519973754883 C 33.7806396484375 7.617690086364746 35.11463165283203 9.596209526062012 36.04637908935547 11.79911994934082 C 37.01092910766602 14.07956981658936 37.5 16.50230026245117 37.5 19 C 37.5 21.49769973754883 37.01092910766602 23.92042922973633 36.04637908935547 26.20088005065918 C 35.11463165283203 28.40378952026367 33.7806396484375 30.38231086730957 32.08147811889648 32.08147811889648 C 30.38231086730957 33.7806396484375 28.40378952026367 35.11463165283203 26.20088005065918 36.04637908935547 C 23.92042922973633 37.01092910766602 21.49769973754883 37.5 19 37.5 Z" stroke="none"/>
      <path d="M 19 1 C 14.19202995300293 1 9.671829223632813 2.872329711914063 6.272079467773438 6.272079467773438 C 2.872329711914063 9.671829223632813 1 14.19202995300293 1 19 C 1 23.80797004699707 2.872329711914063 28.32817077636719 6.272079467773438 31.72792053222656 C 9.671829223632813 35.12767028808594 14.19202995300293 37 19 37 C 23.80797004699707 37 28.32817077636719 35.12767028808594 31.72792053222656 31.72792053222656 C 35.12767028808594 28.32817077636719 37 23.80797004699707 37 19 C 37 14.19202995300293 35.12767028808594 9.671829223632813 31.72792053222656 6.272079467773438 C 28.32817077636719 2.872329711914063 23.80797004699707 1 19 1 M 19 0 C 29.49341011047363 0 38 8.506589889526367 38 19 C 38 29.49341011047363 29.49341011047363 38 19 38 C 8.506589889526367 38 0 29.49341011047363 0 19 C 0 8.506589889526367 8.506589889526367 0 19 0 Z" stroke="none" fill="#a3a1fb"/>
    </g>
    <path id="cart-icon" d="M-615.986-1023a2,2,0,0,1,2-2,2,2,0,0,1,2,2,2,2,0,0,1-2,2A2,2,0,0,1-615.986-1023Zm-10,0a2,2,0,0,1,2-2,2,2,0,0,1,2,2,2,2,0,0,1-2,2A2,2,0,0,1-625.986-1023Zm-1.014-3v-2h12.261l1.427-5h-11.674v-2h-2v-2h3a1,1,0,0,1,1,1v1h11a1.021,1.021,0,0,1,.961,1.275l-2,7a1,1,0,0,1-.962.725Zm1-3v-1h4v1Zm1-2v-1h4v1Z" transform="translate(873 2042)" fill="#a4a1fb"/>
  </g>
</svg>
