<svg xmlns="http://www.w3.org/2000/svg" width="38" height="38" viewBox="0 0 38 38">
  <g id="Group_275" data-name="Group 275" transform="translate(-1155 -1556)">
    <g id="Group_274" data-name="Group 274">
      <g id="Group_273" data-name="Group 273">
        <g id="Group_272" data-name="Group 272">
          <g id="Group_271" data-name="Group 271">
            <g id="Icon" transform="translate(0 159)">
              <circle id="Icon.BG" cx="19" cy="19" r="19" transform="translate(1155 1397)" fill="#f0f0f7"/>
              <path id="time-countdown" d="M-6987-1555a6.957,6.957,0,0,1,7-7,6.845,6.845,0,0,1,4.2,1.4l.9-.9-.8-.8a.966.966,0,0,1,0-1.4.968.968,0,0,1,1.4,0l3,3a.967.967,0,0,1,0,1.4.911.911,0,0,1-.7.3.912.912,0,0,1-.7-.3l-.8-.8-.9.9a6.847,6.847,0,0,1,1.4,4.2,6.957,6.957,0,0,1-7,7A6.957,6.957,0,0,1-6987-1555Zm2,0a4.952,4.952,0,0,0,5,5,4.953,4.953,0,0,0,5-5,4.951,4.951,0,0,0-5-5A4.951,4.951,0,0,0-6985-1555Zm4,1v-4h2v2h2v2Z" transform="translate(8153 2971.999)" fill="#b4b4c6"/>
            </g>
          </g>
        </g>
      </g>
    </g>
  </g>
</svg>
