<svg xmlns="http://www.w3.org/2000/svg" width="38" height="38" viewBox="0 0 38 38">
  <g id="Icon" transform="translate(-235 -994)">
    <g id="Icon.BG" transform="translate(235 994)" fill="#fff">
      <path d="M 19 37.5 C 16.50230026245117 37.5 14.07956981658936 37.01092910766602 11.79911994934082 36.04637908935547 C 9.596209526062012 35.11463165283203 7.617690086364746 33.7806396484375 5.918519973754883 32.08147811889648 C 4.219359874725342 30.38231086730957 2.885370016098022 28.40378952026367 1.953619956970215 26.20088005065918 C 0.9890699982643127 23.92042922973633 0.5 21.49769973754883 0.5 19 C 0.5 16.50230026245117 0.9890699982643127 14.07956981658936 1.953619956970215 11.79911994934082 C 2.885370016098022 9.596209526062012 4.219359874725342 7.617690086364746 5.918519973754883 5.918519973754883 C 7.617690086364746 4.219359874725342 9.596209526062012 2.885370016098022 11.79911994934082 1.953619956970215 C 14.07956981658936 0.9890699982643127 16.50230026245117 0.5 19 0.5 C 21.49769973754883 0.5 23.92042922973633 0.9890699982643127 26.20088005065918 1.953619956970215 C 28.40378952026367 2.885370016098022 30.38231086730957 4.219359874725342 32.08147811889648 5.918519973754883 C 33.7806396484375 7.617690086364746 35.11463165283203 9.596209526062012 36.04637908935547 11.79911994934082 C 37.01092910766602 14.07956981658936 37.5 16.50230026245117 37.5 19 C 37.5 21.49769973754883 37.01092910766602 23.92042922973633 36.04637908935547 26.20088005065918 C 35.11463165283203 28.40378952026367 33.7806396484375 30.38231086730957 32.08147811889648 32.08147811889648 C 30.38231086730957 33.7806396484375 28.40378952026367 35.11463165283203 26.20088005065918 36.04637908935547 C 23.92042922973633 37.01092910766602 21.49769973754883 37.5 19 37.5 Z" stroke="none"/>
      <path d="M 19 1 C 14.19202995300293 1 9.671829223632813 2.872329711914063 6.272079467773438 6.272079467773438 C 2.872329711914063 9.671829223632813 1 14.19202995300293 1 19 C 1 23.80797004699707 2.872329711914063 28.32817077636719 6.272079467773438 31.72792053222656 C 9.671829223632813 35.12767028808594 14.19202995300293 37 19 37 C 23.80797004699707 37 28.32817077636719 35.12767028808594 31.72792053222656 31.72792053222656 C 35.12767028808594 28.32817077636719 37 23.80797004699707 37 19 C 37 14.19202995300293 35.12767028808594 9.671829223632813 31.72792053222656 6.272079467773438 C 28.32817077636719 2.872329711914063 23.80797004699707 1 19 1 M 19 0 C 29.49341011047363 0 38 8.506589889526367 38 19 C 38 29.49341011047363 29.49341011047363 38 19 38 C 8.506589889526367 38 0 29.49341011047363 0 19 C 0 8.506589889526367 8.506589889526367 0 19 0 Z" stroke="none" fill="#56d9fe"/>
    </g>
    <path id="money-bag-icon" d="M-227.408-1011a3.359,3.359,0,0,1-2.768-1.5,3.02,3.02,0,0,1,0-3l3.514-6a1.136,1.136,0,0,1,.958-.5h4.258a1.135,1.135,0,0,1,.958.5l3.514,6a3.013,3.013,0,0,1,0,3,3.359,3.359,0,0,1-2.768,1.5Zm1.7-13a1,1,0,0,1-.745-.3l-1.065-1a.975.975,0,0,1,.745-1.7h6.387a.993.993,0,0,1,.745,1.7l-1.065,1a1,1,0,0,1-.745.3Z" transform="translate(477.575 2032)" fill="#56d9fe"/>
  </g>
</svg>
