<svg xmlns="http://www.w3.org/2000/svg" width="21.17" height="21.17" viewBox="0 0 21.17 21.17">
  <path id="Path_40" data-name="Path 40" d="M10.585,1.882A32.455,32.455,0,0,1,14.819,2a5.455,5.455,0,0,1,2,.353,4.13,4.13,0,0,1,2,2,5.455,5.455,0,0,1,.353,2c0,1.058.118,1.411.118,4.234a32.455,32.455,0,0,1-.118,4.234,5.455,5.455,0,0,1-.353,2,4.13,4.13,0,0,1-2,2,5.455,5.455,0,0,1-2,.353c-1.058,0-1.411.118-4.234.118a32.455,32.455,0,0,1-4.234-.118,5.455,5.455,0,0,1-2-.353,4.13,4.13,0,0,1-2-2,5.455,5.455,0,0,1-.353-2c0-1.058-.118-1.411-.118-4.234A32.455,32.455,0,0,1,2,6.351a5.455,5.455,0,0,1,.353-2,4.224,4.224,0,0,1,.823-1.176,1.988,1.988,0,0,1,1.176-.823,5.455,5.455,0,0,1,2-.353,32.455,32.455,0,0,1,4.234-.118m0-1.882A34.75,34.75,0,0,0,6.233.118a7.261,7.261,0,0,0-2.587.47A4.6,4.6,0,0,0,1.764,1.764,4.6,4.6,0,0,0,.588,3.646a5.359,5.359,0,0,0-.47,2.587A34.75,34.75,0,0,0,0,10.585a34.75,34.75,0,0,0,.118,4.352,7.261,7.261,0,0,0,.47,2.587,4.6,4.6,0,0,0,1.176,1.882,4.6,4.6,0,0,0,1.882,1.176,7.261,7.261,0,0,0,2.587.47,34.75,34.75,0,0,0,4.352.118,34.75,34.75,0,0,0,4.352-.118,7.261,7.261,0,0,0,2.587-.47,4.934,4.934,0,0,0,3.058-3.058,7.261,7.261,0,0,0,.47-2.587c0-1.176.118-1.529.118-4.352a34.75,34.75,0,0,0-.118-4.352,7.261,7.261,0,0,0-.47-2.587,4.6,4.6,0,0,0-1.176-1.882A4.6,4.6,0,0,0,17.524.588a7.261,7.261,0,0,0-2.587-.47A34.75,34.75,0,0,0,10.585,0m0,5.175a5.323,5.323,0,0,0-5.41,5.41,5.41,5.41,0,1,0,5.41-5.41m0,8.938a3.465,3.465,0,0,1-3.528-3.528,3.465,3.465,0,0,1,3.528-3.528,3.465,3.465,0,0,1,3.528,3.528,3.465,3.465,0,0,1-3.528,3.528M16.23,3.646A1.294,1.294,0,1,0,17.524,4.94,1.305,1.305,0,0,0,16.23,3.646" transform="translate(0)" fill="#cecfd0" fill-rule="evenodd"/>
</svg>
